# xmcd
#
# Track frame offsets:
#	150
#	25088
#	39770
#	59244
#	76880
#	91570
#	108993
#	123986
#	139984
#	157005
#	171985
#	187419
#	199977
#	221418
#	245036
#	268072
#	298186
#	319590
#
# Disc length: 4528 seconds
#
# Revision: 0
# Processed by: cddbd v1.5.2PL0 Copyright (c) Steve Scherf et al.
# Submitted via: audiograbber 1.83.01
#
DISCID=1011ae12
DTITLE=Various Artist - Tucson Songs
DYEAR=2011
DGENRE=
TTITLE0=Sergio Mendoza Y la Orkesta feat. Salvador Duran - Mambo Mexicano
TTITLE1=Otherly Love - Crosses The Line
TTITLE2=Andrew Collberg - Plastic Bows
TTITLE3=Courtney Marie Andrews - Its Okay, I Understand
TTITLE4=J. Daniel Twelker - Come Ride with Me
TTITLE5=Gabriel Sullivan - Me and the Dog
TTITLE6=Boffomet - The Circus of Love
TTITLE7=Golden Boots - Days Are Night
TTITLE8=naim amor - Creole
TTITLE9=Silver Thread Trio - Who Killed Cock Robin?
TTITLE10=Marianne Dissard feat. Brian Lopez - Neige Romaine
TTITLE11=Amy Rude and Heartbeast - Stump of Love
TTITLE12=Bread And Circus - Miss Me
TTITLE13=Al Perry - Dreaming
TTITLE14=Giant Sand - Recovery Mission
TTITLE15=Gabriel Sullivan and Taraf de Tucson feat. Billy Sedlmayr - The Rust, Th
TTITLE15=e Knife
TTITLE16=Brian Lopez - El Paharo Y El Ciervo
TTITLE17=Calexico and Francoiz Breut - Keeper of the Flame
EXTD=
EXTT0=
EXTT1=
EXTT2=
EXTT3=
EXTT4=
EXTT5=
EXTT6=
EXTT7=
EXTT8=
EXTT9=
EXTT10=
EXTT11=
EXTT12=
EXTT13=
EXTT14=
EXTT15=
EXTT16=
EXTT17=
PLAYORDER=
